<svg xmlns="http://www.w3.org/2000/svg" xmlns:xlink="http://www.w3.org/1999/xlink" width="1783" zoomAndPan="magnify" viewBox="0 0 1337.25 549.000006" height="732" preserveAspectRatio="xMidYMid meet" version="1.0"><defs><clipPath id="257860f28c"><path d="M 0.839844 0 L 1335.660156 0 L 1335.660156 548 L 0.839844 548 Z M 0.839844 0 " clip-rule="nonzero"/></clipPath><clipPath id="b789a57cef"><path d="M 11.980469 274.847656 L 75 274.847656 L 75 294 L 11.980469 294 Z M 11.980469 274.847656 " clip-rule="nonzero"/></clipPath><clipPath id="0a7a074481"><path d="M 65.472656 293.3125 L 21.210938 293.3125 C 16.121094 293.3125 11.980469 289.171875 11.980469 284.082031 C 11.980469 278.988281 16.121094 274.847656 21.210938 274.847656 L 65.472656 274.847656 C 70.566406 274.847656 74.703125 278.988281 74.703125 284.082031 C 74.703125 289.171875 70.582031 293.3125 65.472656 293.3125 " clip-rule="nonzero"/></clipPath><clipPath id="eab616d23e"><path d="M 96.808594 92.125 L 478.773438 92.125 L 478.773438 392.238281 L 96.808594 392.238281 Z M 96.808594 92.125 " clip-rule="nonzero"/></clipPath><clipPath id="e6a06c2db7"><path d="M 141.128906 373.761719 L 434.074219 373.761719 C 451.019531 346.511719 459.945312 315.210938 459.945312 282.925781 C 459.945312 187.902344 382.628906 110.585938 287.609375 110.585938 C 192.585938 110.585938 115.269531 187.886719 115.269531 282.925781 C 115.269531 315.210938 124.195312 346.511719 141.140625 373.761719 M 444.09375 392.222656 L 131.136719 392.222656 L 128.410156 388.085938 C 107.734375 356.863281 96.808594 320.5 96.808594 282.925781 C 96.808594 177.71875 182.402344 92.125 287.609375 92.125 C 392.816406 92.125 478.410156 177.71875 478.410156 282.925781 C 478.410156 320.5 467.480469 356.863281 446.820312 388.085938 Z M 444.09375 392.222656 " clip-rule="nonzero"/></clipPath><clipPath id="f50ce89b05"><path d="M 143 404.367188 L 432 404.367188 L 432 424 L 143 424 Z M 143 404.367188 " clip-rule="nonzero"/></clipPath><clipPath id="a812a3500e"><path d="M 422.71875 423.265625 L 152.496094 423.265625 C 147.402344 423.265625 143.265625 419.128906 143.265625 414.035156 C 143.265625 408.941406 147.402344 404.804688 152.496094 404.804688 L 422.71875 404.804688 C 427.8125 404.804688 431.949219 408.941406 431.949219 414.035156 C 431.949219 419.128906 427.8125 423.265625 422.71875 423.265625 " clip-rule="nonzero"/></clipPath><clipPath id="5ef442527f"><path d="M 170 436.195312 L 405 436.195312 L 405 455.902344 L 170 455.902344 Z M 170 436.195312 " clip-rule="nonzero"/></clipPath><clipPath id="778ea6b5d7"><path d="M 395.484375 455.035156 L 179.734375 455.035156 C 174.640625 455.035156 170.5 450.898438 170.5 445.804688 C 170.5 440.710938 174.640625 436.574219 179.734375 436.574219 L 395.484375 436.574219 C 400.574219 436.574219 404.714844 440.710938 404.714844 445.804688 C 404.714844 450.898438 400.574219 455.035156 395.484375 455.035156 " clip-rule="nonzero"/></clipPath><clipPath id="e6baeb867d"><path d="M 212.003906 468.027344 L 363 468.027344 L 363 487 L 212.003906 487 Z M 212.003906 468.027344 " clip-rule="nonzero"/></clipPath><clipPath id="523354e197"><path d="M 353.207031 486.820312 L 222.007812 486.820312 C 216.914062 486.820312 212.777344 482.683594 212.777344 477.589844 C 212.777344 472.496094 216.914062 468.359375 222.007812 468.359375 L 353.207031 468.359375 C 358.300781 468.359375 362.4375 472.496094 362.4375 477.589844 C 362.4375 482.683594 358.300781 486.820312 353.207031 486.820312 " clip-rule="nonzero"/></clipPath><clipPath id="52bbd75dcb"><path d="M 259 500 L 316 500 L 316 519 L 259 519 Z M 259 500 " clip-rule="nonzero"/></clipPath><clipPath id="dd12d9b6d8"><path d="M 306.675781 518.589844 L 268.539062 518.589844 C 263.445312 518.589844 259.308594 514.453125 259.308594 509.359375 C 259.308594 504.265625 263.445312 500.128906 268.539062 500.128906 L 306.691406 500.128906 C 311.785156 500.128906 315.921875 504.265625 315.921875 509.359375 C 315.921875 514.453125 311.785156 518.589844 306.691406 518.589844 " clip-rule="nonzero"/></clipPath><clipPath id="f8be5a13a6"><path d="M 228 219.445312 L 348 219.445312 L 348 339 L 228 339 Z M 228 219.445312 " clip-rule="nonzero"/></clipPath><clipPath id="99778688a5"><path d="M 287.609375 267.328125 C 294.035156 267.328125 299.234375 272.542969 299.234375 278.953125 C 299.234375 285.363281 294.035156 290.578125 287.609375 290.578125 C 281.179688 290.578125 275.980469 285.378906 275.980469 278.953125 C 275.980469 272.527344 281.179688 267.328125 287.609375 267.328125 M 287.609375 219.535156 C 254.792969 219.535156 228.175781 246.136719 228.175781 278.96875 C 228.175781 311.800781 254.777344 338.386719 287.609375 338.386719 C 320.4375 338.386719 347.039062 311.785156 347.039062 278.96875 C 347.039062 246.152344 320.4375 219.535156 287.609375 219.535156 " clip-rule="nonzero"/></clipPath><clipPath id="2291af8a3f"><path d="M 283.769531 21.832031 L 302 21.832031 L 302 84 L 283.769531 84 Z M 283.769531 21.832031 " clip-rule="nonzero"/></clipPath><clipPath id="67c673d3d5"><path d="M 293 84.550781 C 287.910156 84.550781 283.769531 80.414062 283.769531 75.320312 L 283.769531 31.0625 C 283.769531 25.96875 287.910156 21.832031 293 21.832031 C 298.09375 21.832031 302.234375 25.96875 302.234375 31.0625 L 302.234375 75.320312 C 302.234375 80.414062 298.09375 84.550781 293 84.550781 " clip-rule="nonzero"/></clipPath><clipPath id="539bcf4d1d"><path d="M 500.515625 274.847656 L 563 274.847656 L 563 294 L 500.515625 294 Z M 500.515625 274.847656 " clip-rule="nonzero"/></clipPath><clipPath id="b5d636b85b"><path d="M 554.007812 293.3125 L 509.746094 293.3125 C 504.65625 293.3125 500.515625 289.171875 500.515625 284.082031 C 500.515625 278.988281 504.65625 274.847656 509.746094 274.847656 L 554.007812 274.847656 C 559.101562 274.847656 563.238281 278.988281 563.238281 284.082031 C 563.238281 289.171875 559.117188 293.3125 554.007812 293.3125 " clip-rule="nonzero"/></clipPath><clipPath id="b46bbcca62"><path d="M 614.402344 145.484375 L 739 145.484375 L 739 363.753906 L 614.402344 363.753906 Z M 614.402344 145.484375 " clip-rule="nonzero"/></clipPath><clipPath id="01f3d7b33d"><path d="M 651.359375 304.757812 C 651.359375 317.929688 662.816406 331.117188 676.277344 331.117188 C 690.886719 331.117188 702.347656 315.929688 702.347656 309.914062 L 702.347656 281.265625 C 702.347656 265.230469 688.886719 255.484375 676.5625 255.484375 C 662.527344 255.484375 651.359375 268.367188 651.359375 281.265625 Z M 739.300781 156.945312 L 739.300781 349.171875 C 739.300781 354.898438 731.570312 360.917969 720.976562 360.917969 C 711.804688 360.917969 704.363281 354.898438 704.363281 349.171875 L 704.363281 340.863281 C 698.632812 352.613281 682.886719 363.496094 664.542969 363.496094 C 637.898438 363.496094 614.402344 335.40625 614.402344 304.757812 L 614.402344 281.265625 C 614.402344 249.480469 637.320312 223.121094 665.394531 223.121094 C 683.15625 223.121094 696.042969 233.71875 702.347656 244.886719 L 702.347656 156.945312 C 702.347656 150.0625 710.652344 145.484375 720.976562 145.484375 C 731.570312 145.484375 739.300781 150.0625 739.300781 156.945312 " clip-rule="nonzero"/></clipPath><clipPath id="054a387d3c"><path d="M 620.5 389 L 646.957031 389 L 646.957031 431.367188 L 620.5 431.367188 Z M 620.5 389 " clip-rule="nonzero"/></clipPath><clipPath id="63e95f79b9"><path d="M 639.488281 419.648438 C 639.488281 411.242188 621.511719 413.828125 621.511719 400.550781 C 621.511719 392.210938 628.6875 389.347656 635.128906 389.347656 C 638.429688 389.347656 645.773438 390.140625 645.773438 393.828125 C 645.773438 395.121094 644.871094 397.6875 642.863281 397.6875 C 641.121094 397.6875 639.84375 395.554688 635.128906 395.554688 C 631.097656 395.554688 628.796875 397.175781 628.796875 399.867188 C 628.796875 406.808594 646.769531 404.410156 646.769531 418.917969 C 646.769531 426.929688 641.167969 431.070312 633.433594 431.070312 C 626.101562 431.085938 620.5 427.382812 620.5 424.128906 C 620.5 422.558594 621.949219 420.207031 623.691406 420.207031 C 625.996094 420.207031 627.503906 424.519531 633.214844 424.519531 C 636.578125 424.519531 639.488281 423.007812 639.488281 419.648438 " clip-rule="nonzero"/></clipPath><clipPath id="4647df5b79"><path d="M 651 392 L 667 392 L 667 431 L 651 431 Z M 651 392 " clip-rule="nonzero"/></clipPath><clipPath id="be59781bd4"><path d="M 658.363281 421.5 C 658.363281 423.679688 659.144531 424.472656 661.507812 424.472656 L 663.6875 424.472656 C 665.757812 424.472656 666.769531 425.980469 666.769531 427.492188 C 666.769531 429.0625 665.757812 430.574219 663.6875 430.574219 L 661.507812 430.574219 C 654.785156 430.574219 651.144531 427.832031 651.144531 421.5 L 651.144531 394.328125 C 651.144531 392.988281 653.042969 392.085938 654.722656 392.085938 C 656.574219 392.085938 658.363281 392.988281 658.363281 394.328125 L 658.363281 403.976562 L 664.980469 403.976562 C 666.160156 403.976562 666.832031 405.3125 666.832031 406.605469 C 666.832031 407.945312 666.160156 409.234375 664.980469 409.234375 L 658.363281 409.234375 Z M 658.363281 421.5 " clip-rule="nonzero"/></clipPath><clipPath id="481ccbb829"><path d="M 670.300781 403.351562 L 688.976562 403.351562 L 688.976562 431 L 670.300781 431 Z M 670.300781 403.351562 " clip-rule="nonzero"/></clipPath><clipPath id="d85929f969"><path d="M 684.308594 409.96875 C 681.054688 409.96875 677.863281 413.15625 677.863281 418.261719 L 677.863281 428.285156 C 677.863281 429.40625 676.183594 430.589844 674.160156 430.589844 C 672.089844 430.589844 670.628906 429.40625 670.628906 428.285156 L 670.628906 406.21875 C 670.628906 404.878906 672.074219 403.976562 674.160156 403.976562 C 675.949219 403.976562 677.414062 404.878906 677.414062 406.21875 L 677.414062 408.503906 C 678.535156 406.09375 681.226562 403.632812 684.308594 403.632812 L 686.035156 403.632812 C 687.375 403.632812 688.664062 405.082031 688.664062 406.761719 C 688.664062 408.488281 687.375 409.953125 686.035156 409.953125 Z M 684.308594 409.96875 " clip-rule="nonzero"/></clipPath><clipPath id="ff5e40eef5"><path d="M 690 403.351562 L 713 403.351562 L 713 431.367188 L 690 431.367188 Z M 690 403.351562 " clip-rule="nonzero"/></clipPath><clipPath id="66f9f6a782"><path d="M 705.550781 419.148438 L 704.710938 419.148438 C 700.960938 419.148438 697.425781 419.539062 697.425781 422.683594 C 697.425781 424.753906 698.71875 425.703125 700.398438 425.703125 C 702.703125 425.703125 705.550781 423.070312 705.550781 420.332031 Z M 712.773438 414.558594 L 712.773438 428.285156 C 712.773438 429.578125 711.261719 430.589844 709.238281 430.589844 C 707.386719 430.589844 705.988281 429.578125 705.988281 428.285156 L 705.988281 426.652344 C 703.964844 428.953125 701.332031 431.070312 697.472656 431.070312 C 693.503906 431.070312 690.191406 428.722656 690.191406 423.617188 C 690.191406 417.171875 695.511719 415.382812 703.25 415.382812 L 705.550781 415.382812 L 705.550781 414.652344 C 705.550781 412.238281 704.320312 409.5 700.617188 409.5 C 696.308594 409.5 695.574219 411.242188 694.238281 411.242188 C 692.617188 411.242188 691.777344 409.28125 691.777344 407.664062 C 691.777344 405.359375 696.757812 403.632812 700.742188 403.632812 C 709.488281 403.632812 712.789062 408.894531 712.789062 414.558594 " clip-rule="nonzero"/></clipPath><clipPath id="3716fc7b9f"><path d="M 718 392 L 734 392 L 734 431 L 718 431 Z M 718 392 " clip-rule="nonzero"/></clipPath><clipPath id="d2cf20888a"><path d="M 725.316406 421.5 C 725.316406 423.679688 726.09375 424.472656 728.460938 424.472656 L 730.640625 424.472656 C 732.707031 424.472656 733.71875 425.980469 733.71875 427.492188 C 733.71875 429.0625 732.707031 430.574219 730.640625 430.574219 L 728.460938 430.574219 C 721.738281 430.574219 718.09375 427.832031 718.09375 421.5 L 718.09375 394.328125 C 718.09375 392.988281 719.992188 392.085938 721.675781 392.085938 C 723.527344 392.085938 725.316406 392.988281 725.316406 394.328125 L 725.316406 403.976562 L 731.929688 403.976562 C 733.113281 403.976562 733.78125 405.3125 733.78125 406.605469 C 733.78125 407.945312 733.113281 409.234375 731.929688 409.234375 L 725.316406 409.234375 Z M 725.316406 421.5 " clip-rule="nonzero"/></clipPath><clipPath id="f8c6f25088"><path d="M 736 403.351562 L 760.566406 403.351562 L 760.566406 431.367188 L 736 431.367188 Z M 736 403.351562 " clip-rule="nonzero"/></clipPath><clipPath id="9ea919fc8d"><path d="M 751.710938 414.886719 C 752.894531 414.886719 753.328125 414.605469 753.328125 413.375 C 753.328125 410.746094 751.089844 408.957031 748.394531 408.957031 C 745.875 408.957031 743.523438 410.636719 743.523438 413.328125 L 743.523438 414.902344 Z M 760.113281 414.152344 C 760.113281 418.917969 757.421875 419.132812 754.902344 419.132812 L 743.523438 419.132812 L 743.523438 419.972656 C 743.523438 423.226562 746.15625 425.34375 750.078125 425.34375 C 753.78125 425.34375 755.289062 423.210938 756.972656 423.210938 C 758.652344 423.210938 759.710938 425.28125 759.710938 426.402344 C 759.710938 428.316406 755.851562 431.054688 749.859375 431.054688 C 741.90625 431.054688 736.304688 426.464844 736.304688 419.570312 L 736.304688 414.839844 C 736.304688 408.785156 741.734375 403.632812 748.566406 403.632812 C 754.730469 403.632812 760.097656 407.945312 760.097656 414.167969 " clip-rule="nonzero"/></clipPath><clipPath id="1298304248"><path d="M 762.121094 401 L 788 401 L 788 443 L 762.121094 443 Z M 762.121094 401 " clip-rule="nonzero"/></clipPath><clipPath id="04afd7094d"><path d="M 778.601562 412.878906 C 778.601562 410.183594 777.140625 408.007812 774.574219 408.007812 C 772.003906 408.007812 770.589844 410.183594 770.589844 412.878906 L 770.589844 414 C 770.589844 416.847656 772.050781 419.039062 774.621094 419.039062 C 777.078125 419.039062 778.601562 416.972656 778.601562 414.0625 Z M 772.332031 430.464844 C 770.542969 431.304688 769.3125 432.597656 769.3125 434.324219 C 769.3125 436.84375 771.769531 438.308594 774.742188 438.308594 C 777.714844 438.308594 780.066406 436.796875 780.066406 434.386719 C 780.066406 431.257812 775.863281 430.851562 772.332031 430.464844 M 770.867188 422.898438 C 770.480469 423.242188 770.199219 423.570312 770.199219 424.019531 C 770.199219 427.664062 787.054688 423.679688 787.054688 434.167969 C 787.054688 440.394531 781.109375 442.960938 774.835938 442.960938 C 768.222656 442.960938 762.449219 440.097656 762.449219 435.070312 C 762.449219 432.207031 764.238281 430.308594 766.542969 429.125 C 765.140625 428.457031 764.191406 427.382812 764.191406 425.546875 C 764.191406 423.476562 765.375 422.292969 767.054688 421.171875 C 764.875 419.492188 763.585938 416.972656 763.585938 414.0625 L 763.585938 412.878906 C 763.585938 407.445312 767.957031 403.632812 774.511719 403.632812 C 776.96875 403.632812 779.210938 404.242188 780.890625 405.253906 C 782.183594 402.28125 783.304688 401.4375 784.316406 401.4375 C 786.167969 401.4375 787.179688 402.777344 787.179688 403.679688 C 787.179688 404.347656 786.789062 404.863281 786.277344 405.253906 C 785.542969 405.75 784.484375 406.308594 783.644531 407.382812 C 784.9375 408.894531 785.605469 410.808594 785.605469 412.878906 L 785.605469 414.0625 C 785.605469 419.445312 781.015625 423.414062 774.511719 423.414062 C 773.171875 423.414062 771.925781 423.242188 770.867188 422.898438 " clip-rule="nonzero"/></clipPath><clipPath id="2a839ef57d"><path d="M 790.136719 390.902344 L 799 390.902344 L 799 431 L 790.136719 431 Z M 790.136719 390.902344 " clip-rule="nonzero"/></clipPath><clipPath id="dcb13e1d1c"><path d="M 797.980469 406.21875 L 797.980469 428.285156 C 797.980469 429.40625 796.359375 430.574219 794.335938 430.574219 C 792.265625 430.574219 790.757812 429.390625 790.757812 428.285156 L 790.757812 406.21875 C 790.757812 404.878906 792.265625 403.976562 794.335938 403.976562 C 796.359375 403.976562 797.980469 404.878906 797.980469 406.21875 M 798.257812 394.515625 C 798.257812 396.367188 796.515625 398.046875 794.335938 398.046875 C 792.097656 398.046875 790.351562 396.367188 790.351562 394.515625 C 790.351562 392.597656 792.097656 390.980469 794.335938 390.980469 C 796.515625 390.980469 798.257812 392.597656 798.257812 394.515625 " clip-rule="nonzero"/></clipPath><clipPath id="c55a72fc55"><path d="M 802.585938 403.351562 L 824.375 403.351562 L 824.375 431.367188 L 802.585938 431.367188 Z M 802.585938 403.351562 " clip-rule="nonzero"/></clipPath><clipPath id="d047cd4cb5"><path d="M 802.695312 419.601562 L 802.695312 415.117188 C 802.695312 408.675781 806.335938 403.632812 814.800781 403.632812 C 820.0625 403.632812 823.765625 405.8125 823.765625 408.007812 C 823.765625 409.34375 822.644531 411.539062 820.902344 411.539062 C 819.671875 411.539062 818.660156 409.96875 815.363281 409.96875 C 811.550781 409.96875 809.929688 411.867188 809.929688 415.117188 L 809.929688 419.601562 C 809.929688 422.855469 811.550781 424.753906 815.425781 424.753906 C 818.785156 424.753906 819.625 423.070312 821.027344 423.070312 C 822.988281 423.070312 824.109375 425.09375 824.109375 426.496094 C 824.109375 428.738281 820.125 431.085938 814.863281 431.085938 C 806.398438 431.085938 802.710938 426.152344 802.710938 419.601562 " clip-rule="nonzero"/></clipPath><clipPath id="38f21e118e"><path d="M 771.101562 151 L 910 151 L 910 363 L 771.101562 363 Z M 771.101562 151 " clip-rule="nonzero"/></clipPath><clipPath id="8267bb93eb"><path d="M 808.34375 184.160156 L 808.34375 245.183594 L 839.855469 245.183594 C 858.46875 245.183594 870.503906 237.453125 870.503906 214.824219 C 870.503906 192.191406 858.46875 184.160156 839.855469 184.160156 Z M 771.101562 162.96875 C 771.101562 156.953125 775.96875 151.511719 783.136719 151.511719 L 839.855469 151.511719 C 877.386719 151.511719 907.746094 165.835938 907.746094 211.382812 C 907.746094 244.320312 891.710938 262.082031 870.214844 268.675781 L 907.746094 338.292969 C 908.898438 339.71875 909.1875 341.734375 909.1875 342.871094 C 909.1875 352.328125 896.863281 362.347656 885.980469 362.347656 C 880.828125 362.347656 875.960938 359.195312 873.082031 353.464844 L 832.398438 274.390625 L 808.34375 274.390625 L 808.34375 349.160156 C 808.34375 356.890625 799.175781 360.910156 789.730469 360.910156 C 780.5625 360.910156 771.117188 356.890625 771.117188 349.160156 Z M 771.101562 162.96875 " clip-rule="nonzero"/></clipPath><clipPath id="c8438c7f1d"><path d="M 924 150.070312 L 1059 150.070312 L 1059 363.789062 L 924 363.789062 Z M 924 150.070312 " clip-rule="nonzero"/></clipPath><clipPath id="99615ab692"><path d="M 1021.183594 305.054688 C 1021.183594 262.082031 929.222656 275.253906 929.222656 207.363281 C 929.222656 164.683594 965.890625 150.070312 998.839844 150.070312 C 1015.742188 150.070312 1053.273438 154.085938 1053.273438 172.988281 C 1053.273438 179.582031 1048.695312 192.753906 1038.371094 192.753906 C 1029.488281 192.753906 1022.894531 181.871094 998.839844 181.871094 C 978.210938 181.871094 966.464844 190.175781 966.464844 203.925781 C 966.464844 239.453125 1058.425781 227.128906 1058.425781 301.324219 C 1058.425781 342.296875 1029.777344 363.484375 990.246094 363.484375 C 952.71875 363.484375 924.070312 344.570312 924.070312 327.957031 C 924.070312 319.9375 931.511719 307.902344 940.394531 307.902344 C 952.140625 307.902344 959.871094 329.957031 989.09375 329.957031 C 1006.285156 329.957031 1021.183594 322.226562 1021.183594 305.039062 " clip-rule="nonzero"/></clipPath><clipPath id="8c7b2d1f25"><path d="M 1070 151 L 1215 151 L 1215 361 L 1070 361 Z M 1070 151 " clip-rule="nonzero"/></clipPath><clipPath id="cbdca08dc5"><path d="M 1203.101562 151.496094 C 1211.121094 151.496094 1214.847656 160.089844 1214.847656 168.109375 C 1214.847656 176.988281 1210.542969 185.007812 1203.101562 185.007812 L 1161.265625 185.007812 L 1161.265625 349.160156 C 1161.265625 356.890625 1151.808594 360.910156 1142.65625 360.910156 C 1133.195312 360.910156 1124.027344 356.890625 1124.027344 349.160156 L 1124.027344 185.023438 L 1081.917969 185.023438 C 1074.476562 185.023438 1070.171875 177.292969 1070.171875 168.121094 C 1070.171875 160.105469 1073.902344 151.511719 1081.917969 151.511719 Z M 1203.101562 151.496094 " clip-rule="nonzero"/></clipPath><clipPath id="883eee08f2"><path d="M 1230 158 L 1271 158 L 1271 361 L 1230 361 Z M 1230 158 " clip-rule="nonzero"/></clipPath><clipPath id="234ef9a425"><path d="M 1269.277344 236.300781 L 1269.277344 349.160156 C 1269.277344 354.890625 1260.972656 360.910156 1250.664062 360.910156 C 1240.070312 360.910156 1232.324219 354.890625 1232.324219 349.160156 L 1232.324219 236.300781 C 1232.324219 229.417969 1240.054688 224.839844 1250.664062 224.839844 C 1260.972656 224.839844 1269.277344 229.417969 1269.277344 236.300781 M 1270.71875 176.429688 C 1270.71875 185.886719 1261.835938 194.480469 1250.664062 194.480469 C 1239.207031 194.480469 1230.324219 185.886719 1230.324219 176.429688 C 1230.324219 166.683594 1239.207031 158.375 1250.664062 158.375 C 1261.835938 158.375 1270.71875 166.683594 1270.71875 176.429688 " clip-rule="nonzero"/></clipPath><clipPath id="581e718f8e"><path d="M 1229 154 L 1274 154 L 1274 198 L 1229 198 Z M 1229 154 " clip-rule="nonzero"/></clipPath><clipPath id="7561965fd3"><path d="M 1251.636719 154.558594 C 1239.675781 154.558594 1229.976562 164.257812 1229.976562 176.214844 C 1229.976562 188.175781 1239.675781 197.863281 1251.636719 197.863281 C 1263.59375 197.863281 1273.28125 188.160156 1273.28125 176.214844 C 1273.28125 164.273438 1263.59375 154.558594 1251.636719 154.558594 " clip-rule="nonzero"/></clipPath><clipPath id="c90ecb7086"><path d="M 839.671875 389 L 872.351562 389 L 872.351562 431 L 839.671875 431 Z M 839.671875 389 " clip-rule="nonzero"/></clipPath><clipPath id="73ba29457c"><path d="M 858.269531 415.84375 C 857.644531 416.964844 856.695312 417.304688 855.808594 417.304688 C 854.921875 417.304688 854.019531 416.964844 853.398438 415.84375 L 846.953125 403.75 L 846.953125 428.277344 C 846.953125 429.789062 845.101562 430.582031 843.3125 430.582031 C 841.460938 430.582031 839.671875 429.804688 839.671875 428.277344 L 839.671875 393.277344 C 839.671875 390.585938 841.460938 389.636719 843.3125 389.636719 C 845.941406 389.636719 847.125 390.195312 848.976562 393.496094 L 855.855469 406.039062 L 862.75 393.496094 C 864.601562 390.195312 865.832031 389.636719 868.460938 389.636719 C 870.3125 389.636719 872.105469 390.585938 872.105469 393.277344 L 872.105469 428.292969 C 872.105469 429.804688 870.25 430.597656 868.460938 430.597656 C 866.609375 430.597656 864.820312 429.820312 864.820312 428.292969 L 864.820312 404.1875 Z M 858.269531 415.84375 " clip-rule="nonzero"/></clipPath><clipPath id="285f67b75f"><path d="M 876 403 L 900 403 L 900 432 L 876 432 Z M 876 403 " clip-rule="nonzero"/></clipPath><clipPath id="210466bbd4"><path d="M 892.054688 419.15625 L 891.214844 419.15625 C 887.464844 419.15625 883.929688 419.546875 883.929688 422.691406 C 883.929688 424.761719 885.222656 425.710938 886.902344 425.710938 C 889.207031 425.710938 892.054688 423.078125 892.054688 420.339844 Z M 899.277344 414.566406 L 899.277344 428.292969 C 899.277344 429.585938 897.765625 430.597656 895.742188 430.597656 C 893.890625 430.597656 892.492188 429.585938 892.492188 428.292969 L 892.492188 426.660156 C 890.46875 428.960938 887.835938 431.078125 883.976562 431.078125 C 880.007812 431.078125 876.695312 428.730469 876.695312 423.625 C 876.695312 417.183594 882.015625 415.390625 889.75 415.390625 L 892.054688 415.390625 L 892.054688 414.660156 C 892.054688 412.25 890.824219 409.507812 887.121094 409.507812 C 882.8125 409.507812 882.078125 411.253906 880.742188 411.253906 C 879.121094 411.253906 878.28125 409.292969 878.28125 407.671875 C 878.28125 405.371094 883.261719 403.640625 887.246094 403.640625 C 895.992188 403.640625 899.292969 408.902344 899.292969 414.566406 " clip-rule="nonzero"/></clipPath><clipPath id="d69b27d526"><path d="M 904 403 L 923 403 L 923 431 L 904 431 Z M 904 403 " clip-rule="nonzero"/></clipPath><clipPath id="93fdd14438"><path d="M 918.324219 409.960938 C 915.074219 409.960938 911.882812 413.152344 911.882812 418.253906 L 911.882812 428.277344 C 911.882812 429.398438 910.203125 430.582031 908.179688 430.582031 C 906.109375 430.582031 904.644531 429.398438 904.644531 428.277344 L 904.644531 406.210938 C 904.644531 404.871094 906.09375 403.96875 908.179688 403.96875 C 909.96875 403.96875 911.429688 404.871094 911.429688 406.210938 L 911.429688 408.496094 C 912.550781 406.085938 915.242188 403.625 918.324219 403.625 L 920.050781 403.625 C 921.390625 403.625 922.683594 405.074219 922.683594 406.753906 C 922.683594 408.480469 921.390625 409.945312 920.050781 409.945312 Z M 918.324219 409.960938 " clip-rule="nonzero"/></clipPath><clipPath id="191e8a80e3"><path d="M 925.265625 388.453125 L 950 388.453125 L 950 432 L 925.265625 432 Z M 925.265625 388.453125 " clip-rule="nonzero"/></clipPath><clipPath id="97d477d6a7"><path d="M 941.359375 414.503906 L 949.589844 426.269531 C 949.871094 426.660156 949.980469 427.046875 949.980469 427.453125 C 949.980469 429.132812 947.628906 431.03125 945.886719 431.03125 C 945.15625 431.03125 944.546875 430.691406 944.097656 430.082031 L 936.535156 418.941406 L 933.0625 422.128906 L 933.0625 428.292969 C 933.0625 429.414062 931.382812 430.597656 929.359375 430.597656 C 927.289062 430.597656 925.828125 429.414062 925.828125 428.292969 L 925.828125 390.695312 C 925.828125 389.355469 927.289062 388.453125 929.359375 388.453125 C 931.382812 388.453125 933.0625 389.355469 933.0625 390.695312 L 933.0625 414.164062 L 943.597656 404.25 C 943.988281 403.90625 944.5 403.6875 945.0625 403.6875 C 946.632812 403.6875 948.59375 405.539062 948.59375 407.160156 C 948.59375 407.65625 948.375 408.109375 947.972656 408.496094 Z M 941.359375 414.503906 " clip-rule="nonzero"/></clipPath><clipPath id="b52007879e"><path d="M 951.722656 403 L 976 403 L 976 432 L 951.722656 432 Z M 951.722656 403 " clip-rule="nonzero"/></clipPath><clipPath id="c12cec587d"><path d="M 967.300781 414.894531 C 968.484375 414.894531 968.917969 414.613281 968.917969 413.382812 C 968.917969 410.753906 966.679688 408.964844 963.984375 408.964844 C 961.464844 408.964844 959.113281 410.644531 959.113281 413.335938 L 959.113281 414.910156 Z M 975.703125 414.164062 C 975.703125 418.925781 973.011719 419.140625 970.492188 419.140625 L 959.113281 419.140625 L 959.113281 419.984375 C 959.113281 423.234375 961.746094 425.351562 965.667969 425.351562 C 969.371094 425.351562 970.878906 423.21875 972.5625 423.21875 C 974.242188 423.21875 975.300781 425.289062 975.300781 426.410156 C 975.300781 428.324219 971.441406 431.0625 965.449219 431.0625 C 957.496094 431.0625 951.894531 426.472656 951.894531 419.578125 L 951.894531 414.832031 C 951.894531 408.777344 957.324219 403.625 964.15625 403.625 C 970.320312 403.625 975.6875 407.9375 975.6875 414.164062 " clip-rule="nonzero"/></clipPath><clipPath id="2ca1b10ff7"><path d="M 979.734375 392 L 996 392 L 996 431 L 979.734375 431 Z M 979.734375 392 " clip-rule="nonzero"/></clipPath><clipPath id="dc6a3ef720"><path d="M 987.191406 421.507812 C 987.191406 423.6875 987.96875 424.480469 990.335938 424.480469 L 992.511719 424.480469 C 994.582031 424.480469 995.59375 425.988281 995.59375 427.5 C 995.59375 429.070312 994.582031 430.582031 992.511719 430.582031 L 990.335938 430.582031 C 983.609375 430.582031 979.96875 427.84375 979.96875 421.507812 L 979.96875 394.335938 C 979.96875 392.996094 981.867188 392.09375 983.546875 392.09375 C 985.402344 392.09375 987.191406 392.996094 987.191406 394.335938 L 987.191406 403.96875 L 993.804688 403.96875 C 994.988281 403.96875 995.65625 405.308594 995.65625 406.597656 C 995.65625 407.9375 994.988281 409.230469 993.804688 409.230469 L 987.191406 409.230469 Z M 987.191406 421.507812 " clip-rule="nonzero"/></clipPath><clipPath id="bf98b8fb30"><path d="M 999 390.007812 L 1007 390.007812 L 1007 431 L 999 431 Z M 999 390.007812 " clip-rule="nonzero"/></clipPath><clipPath id="3a4be83f7e"><path d="M 1006.675781 406.210938 L 1006.675781 428.277344 C 1006.675781 429.398438 1005.054688 430.566406 1003.035156 430.566406 C 1000.964844 430.566406 999.453125 429.382812 999.453125 428.277344 L 999.453125 406.210938 C 999.453125 404.871094 1000.964844 403.96875 1003.035156 403.96875 C 1005.054688 403.96875 1006.675781 404.871094 1006.675781 406.210938 M 1006.953125 394.507812 C 1006.953125 396.359375 1005.210938 398.039062 1003.035156 398.039062 C 1000.792969 398.039062 999.050781 396.359375 999.050781 394.507812 C 999.050781 392.59375 1000.792969 390.972656 1003.035156 390.972656 C 1005.210938 390.972656 1006.953125 392.59375 1006.953125 394.507812 " clip-rule="nonzero"/></clipPath><clipPath id="7b533b354e"><path d="M 1012 403 L 1037 403 L 1037 431 L 1012 431 Z M 1012 403 " clip-rule="nonzero"/></clipPath><clipPath id="e25c810ea8"><path d="M 1019.515625 428.277344 C 1019.515625 429.398438 1017.832031 430.582031 1015.871094 430.582031 C 1013.742188 430.582031 1012.292969 429.398438 1012.292969 428.277344 L 1012.292969 406.210938 C 1012.292969 404.871094 1013.757812 403.96875 1015.871094 403.96875 C 1017.617188 403.96875 1019.0625 404.871094 1019.0625 406.210938 L 1019.0625 407.890625 C 1020.121094 405.710938 1022.8125 403.625 1026.5625 403.625 C 1031.714844 403.625 1036.199219 408.777344 1036.199219 415.003906 L 1036.199219 428.277344 C 1036.199219 429.789062 1034.34375 430.582031 1032.554688 430.582031 C 1030.875 430.582031 1028.976562 429.804688 1028.976562 428.277344 L 1028.976562 415.003906 C 1028.976562 412.480469 1026.796875 409.960938 1024.105469 409.960938 C 1021.816406 409.960938 1019.515625 411.859375 1019.515625 415.003906 Z M 1019.515625 428.277344 " clip-rule="nonzero"/></clipPath><clipPath id="a29519dac0"><path d="M 1039 401 L 1065 401 L 1065 443 L 1039 443 Z M 1039 401 " clip-rule="nonzero"/></clipPath><clipPath id="5af45c292a"><path d="M 1055.761719 412.871094 C 1055.761719 410.179688 1054.296875 408 1051.730469 408 C 1049.160156 408 1047.761719 410.179688 1047.761719 412.871094 L 1047.761719 413.992188 C 1047.761719 416.839844 1049.207031 419.035156 1051.792969 419.035156 C 1054.25 419.035156 1055.773438 416.964844 1055.773438 414.054688 Z M 1049.488281 430.472656 C 1047.699219 431.3125 1046.46875 432.605469 1046.46875 434.332031 C 1046.46875 436.851562 1048.929688 438.316406 1051.898438 438.316406 C 1054.871094 438.316406 1057.222656 436.804688 1057.222656 434.394531 C 1057.222656 431.265625 1053.019531 430.859375 1049.488281 430.472656 M 1048.023438 422.910156 C 1047.636719 423.25 1047.355469 423.578125 1047.355469 424.027344 C 1047.355469 427.671875 1064.210938 423.6875 1064.210938 434.175781 C 1064.210938 440.402344 1058.265625 442.96875 1051.992188 442.96875 C 1045.378906 442.96875 1039.605469 440.105469 1039.605469 435.078125 C 1039.605469 432.214844 1041.394531 430.316406 1043.699219 429.132812 C 1042.296875 428.464844 1041.347656 427.390625 1041.347656 425.554688 C 1041.347656 423.484375 1042.53125 422.300781 1044.210938 421.179688 C 1042.035156 419.5 1040.742188 416.980469 1040.742188 414.070312 L 1040.742188 412.886719 C 1040.742188 407.453125 1045.113281 403.640625 1051.667969 403.640625 C 1054.125 403.640625 1056.367188 404.25 1058.046875 405.261719 C 1059.339844 402.289062 1060.460938 401.449219 1061.472656 401.449219 C 1063.324219 401.449219 1064.335938 402.785156 1064.335938 403.6875 C 1064.335938 404.359375 1063.945312 404.871094 1063.433594 405.261719 C 1062.699219 405.757812 1061.640625 406.320312 1060.800781 407.394531 C 1062.09375 408.902344 1062.761719 410.816406 1062.761719 412.886719 L 1062.761719 414.070312 C 1062.761719 419.453125 1058.171875 423.421875 1051.667969 423.421875 C 1050.328125 423.421875 1049.082031 423.25 1048.023438 422.910156 " clip-rule="nonzero"/></clipPath><clipPath id="813df88e90"><path d="M 1079.335938 389 L 1107 389 L 1107 431 L 1079.335938 431 Z M 1079.335938 389 " clip-rule="nonzero"/></clipPath><clipPath id="1a9c6c2bbd"><path d="M 1086.964844 396.015625 L 1086.964844 409.570312 L 1093.234375 409.570312 C 1096.875 409.570312 1099.117188 407.5 1099.117188 403.128906 L 1099.117188 402.460938 C 1099.117188 398.085938 1096.875 396.015625 1093.234375 396.015625 Z M 1079.679688 391.875 C 1079.679688 390.695312 1080.738281 389.636719 1082.417969 389.636719 L 1093.671875 389.636719 C 1100.78125 389.636719 1106.386719 393.058594 1106.386719 402.242188 L 1106.386719 402.582031 C 1106.386719 411.765625 1100.613281 415.296875 1093.21875 415.296875 L 1086.964844 415.296875 L 1086.964844 428.292969 C 1086.964844 429.804688 1085.109375 430.597656 1083.320312 430.597656 C 1081.46875 430.597656 1079.679688 429.820312 1079.679688 428.292969 Z M 1079.679688 391.875 " clip-rule="nonzero"/></clipPath><clipPath id="62f60f52f2"><path d="M 1108 403 L 1130.695312 403 L 1130.695312 432 L 1108 432 Z M 1108 403 " clip-rule="nonzero"/></clipPath><clipPath id="dc415372a9"><path d="M 1123.425781 419.15625 L 1122.585938 419.15625 C 1118.835938 419.15625 1115.304688 419.546875 1115.304688 422.691406 C 1115.304688 424.761719 1116.59375 425.710938 1118.277344 425.710938 C 1120.578125 425.710938 1123.425781 423.078125 1123.425781 420.339844 Z M 1130.648438 414.566406 L 1130.648438 428.292969 C 1130.648438 429.585938 1129.136719 430.597656 1127.113281 430.597656 C 1125.261719 430.597656 1123.863281 429.585938 1123.863281 428.292969 L 1123.863281 426.660156 C 1121.839844 428.960938 1119.210938 431.078125 1115.351562 431.078125 C 1111.382812 431.078125 1108.066406 428.730469 1108.066406 423.625 C 1108.066406 417.183594 1113.390625 415.390625 1121.125 415.390625 L 1123.425781 415.390625 L 1123.425781 414.660156 C 1123.425781 412.25 1122.199219 409.507812 1118.492188 409.507812 C 1114.183594 409.507812 1113.449219 411.253906 1112.113281 411.253906 C 1110.492188 411.253906 1109.652344 409.292969 1109.652344 407.671875 C 1109.652344 405.371094 1114.632812 403.640625 1118.617188 403.640625 C 1127.363281 403.640625 1130.664062 408.902344 1130.664062 414.566406 " clip-rule="nonzero"/></clipPath><clipPath id="e845716d6a"><path d="M 1136 403 L 1155 403 L 1155 431 L 1136 431 Z M 1136 403 " clip-rule="nonzero"/></clipPath><clipPath id="f40549f59c"><path d="M 1149.710938 409.960938 C 1146.460938 409.960938 1143.269531 413.152344 1143.269531 418.253906 L 1143.269531 428.277344 C 1143.269531 429.398438 1141.589844 430.582031 1139.566406 430.582031 C 1137.496094 430.582031 1136.03125 429.398438 1136.03125 428.277344 L 1136.03125 406.210938 C 1136.03125 404.871094 1137.480469 403.96875 1139.566406 403.96875 C 1141.355469 403.96875 1142.816406 404.871094 1142.816406 406.210938 L 1142.816406 408.496094 C 1143.9375 406.085938 1146.628906 403.625 1149.710938 403.625 L 1151.441406 403.625 C 1152.777344 403.625 1154.070312 405.074219 1154.070312 406.753906 C 1154.070312 408.480469 1152.777344 409.945312 1151.441406 409.945312 Z M 1149.710938 409.960938 " clip-rule="nonzero"/></clipPath><clipPath id="ffdc2047e9"><path d="M 1157 392 L 1173 392 L 1173 431 L 1157 431 Z M 1157 392 " clip-rule="nonzero"/></clipPath><clipPath id="4638e1e4db"><path d="M 1164.339844 421.507812 C 1164.339844 423.6875 1165.121094 424.480469 1167.484375 424.480469 L 1169.664062 424.480469 C 1171.734375 424.480469 1172.746094 425.988281 1172.746094 427.5 C 1172.746094 429.070312 1171.734375 430.582031 1169.664062 430.582031 L 1167.484375 430.582031 C 1160.761719 430.582031 1157.121094 427.84375 1157.121094 421.507812 L 1157.121094 394.335938 C 1157.121094 392.996094 1159.019531 392.09375 1160.699219 392.09375 C 1162.550781 392.09375 1164.339844 392.996094 1164.339844 394.335938 L 1164.339844 403.96875 L 1170.957031 403.96875 C 1172.136719 403.96875 1172.808594 405.308594 1172.808594 406.597656 C 1172.808594 407.9375 1172.136719 409.230469 1170.957031 409.230469 L 1164.339844 409.230469 Z M 1164.339844 421.507812 " clip-rule="nonzero"/></clipPath><clipPath id="3ce3015a6d"><path d="M 1176 403 L 1200.726562 403 L 1200.726562 431 L 1176 431 Z M 1176 403 " clip-rule="nonzero"/></clipPath><clipPath id="516d1d7d43"><path d="M 1183.824219 428.277344 C 1183.824219 429.398438 1182.144531 430.582031 1180.183594 430.582031 C 1178.050781 430.582031 1176.605469 429.398438 1176.605469 428.277344 L 1176.605469 406.210938 C 1176.605469 404.871094 1178.066406 403.96875 1180.183594 403.96875 C 1181.925781 403.96875 1183.375 404.871094 1183.375 406.210938 L 1183.375 407.890625 C 1184.433594 405.710938 1187.125 403.625 1190.875 403.625 C 1196.027344 403.625 1200.507812 408.777344 1200.507812 415.003906 L 1200.507812 428.277344 C 1200.507812 429.789062 1198.65625 430.582031 1196.867188 430.582031 C 1195.1875 430.582031 1193.289062 429.804688 1193.289062 428.277344 L 1193.289062 415.003906 C 1193.289062 412.480469 1191.109375 409.960938 1188.417969 409.960938 C 1186.128906 409.960938 1183.824219 411.859375 1183.824219 415.003906 Z M 1183.824219 428.277344 " clip-rule="nonzero"/></clipPath><clipPath id="9d100b1799"><path d="M 1204 403 L 1228.738281 403 L 1228.738281 432 L 1204 432 Z M 1204 403 " clip-rule="nonzero"/></clipPath><clipPath id="d056de89f7"><path d="M 1220.304688 414.894531 C 1221.488281 414.894531 1221.921875 414.613281 1221.921875 413.382812 C 1221.921875 410.753906 1219.683594 408.964844 1216.988281 408.964844 C 1214.46875 408.964844 1212.117188 410.644531 1212.117188 413.335938 L 1212.117188 414.910156 Z M 1228.707031 414.164062 C 1228.707031 418.925781 1226.015625 419.140625 1223.496094 419.140625 L 1212.117188 419.140625 L 1212.117188 419.984375 C 1212.117188 423.234375 1214.75 425.351562 1218.671875 425.351562 C 1222.375 425.351562 1223.882812 423.21875 1225.566406 423.21875 C 1227.246094 423.21875 1228.304688 425.289062 1228.304688 426.410156 C 1228.304688 428.324219 1224.445312 431.0625 1218.453125 431.0625 C 1210.5 431.0625 1204.898438 426.472656 1204.898438 419.578125 L 1204.898438 414.832031 C 1204.898438 408.777344 1210.328125 403.625 1217.160156 403.625 C 1223.324219 403.625 1228.691406 407.9375 1228.691406 414.164062 " clip-rule="nonzero"/></clipPath><clipPath id="08db8320d5"><path d="M 1233 403 L 1252 403 L 1252 431 L 1233 431 Z M 1233 403 " clip-rule="nonzero"/></clipPath><clipPath id="36deb5e94d"><path d="M 1246.683594 409.960938 C 1243.429688 409.960938 1240.242188 413.152344 1240.242188 418.253906 L 1240.242188 428.277344 C 1240.242188 429.398438 1238.558594 430.582031 1236.535156 430.582031 C 1234.46875 430.582031 1233.003906 429.398438 1233.003906 428.277344 L 1233.003906 406.210938 C 1233.003906 404.871094 1234.453125 403.96875 1236.535156 403.96875 C 1238.328125 403.96875 1239.789062 404.871094 1239.789062 406.210938 L 1239.789062 408.496094 C 1240.910156 406.085938 1243.601562 403.625 1246.683594 403.625 L 1248.410156 403.625 C 1249.75 403.625 1251.042969 405.074219 1251.042969 406.753906 C 1251.042969 408.480469 1249.75 409.945312 1248.410156 409.945312 Z M 1246.683594 409.960938 " clip-rule="nonzero"/></clipPath><clipPath id="de8177ea87"><path d="M 1252.085938 403 L 1273.871094 403 L 1273.871094 432 L 1252.085938 432 Z M 1252.085938 403 " clip-rule="nonzero"/></clipPath><clipPath id="43ec05acf8"><path d="M 1266.699219 423.1875 C 1266.699219 418.253906 1253.421875 421.335938 1253.421875 411.984375 C 1253.421875 408 1255.945312 403.640625 1263.445312 403.640625 C 1267.972656 403.640625 1272.347656 405.214844 1272.347656 407.285156 C 1272.347656 408.296875 1271.398438 410.753906 1269.714844 410.753906 C 1268.378906 410.753906 1266.636719 409.136719 1263.554688 409.136719 C 1260.753906 409.136719 1259.632812 410.535156 1259.632812 411.65625 C 1259.632812 415.75 1273.078125 412.949219 1273.078125 422.910156 C 1273.078125 427.890625 1269.375 431.09375 1262.777344 431.09375 C 1257.0625 431.09375 1252.644531 428.746094 1252.644531 426.269531 C 1252.644531 425.085938 1253.65625 423.078125 1255.054688 423.078125 C 1256.675781 423.078125 1257.921875 425.601562 1262.621094 425.601562 C 1265.917969 425.601562 1266.714844 424.308594 1266.714844 423.1875 " clip-rule="nonzero"/></clipPath></defs><g clip-path="url(#257860f28c)"><path fill="#ffffff" d="M 0.839844 0 L 1336.410156 0 L 1336.410156 555.488281 L 0.839844 555.488281 Z M 0.839844 0 " fill-opacity="1" fill-rule="nonzero"/><path fill="#ffffff" d="M 0.839844 0 L 1335.660156 0 L 1335.660156 548 L 0.839844 548 Z M 0.839844 0 " fill-opacity="1" fill-rule="nonzero"/></g><g clip-path="url(#b789a57cef)"><g clip-path="url(#0a7a074481)"><path fill="#231f20" d="M 11.980469 274.847656 L 74.128906 274.847656 L 74.128906 293.039062 L 11.980469 293.039062 Z M 11.980469 274.847656 " fill-opacity="1" fill-rule="nonzero"/></g></g><g clip-path="url(#eab616d23e)"><g clip-path="url(#e6a06c2db7)"><path fill="#231f20" d="M 89.226562 84.546875 L 486.351562 84.546875 L 486.351562 525.625 L 89.226562 525.625 Z M 89.226562 84.546875 " fill-opacity="1" fill-rule="nonzero"/></g></g><g clip-path="url(#f50ce89b05)"><g clip-path="url(#a812a3500e)"><path fill="#231f20" d="M 89.226562 84.546875 L 486.351562 84.546875 L 486.351562 525.625 L 89.226562 525.625 Z M 89.226562 84.546875 " fill-opacity="1" fill-rule="nonzero"/></g></g><g clip-path="url(#5ef442527f)"><g clip-path="url(#778ea6b5d7)"><path fill="#231f20" d="M 89.226562 84.546875 L 486.351562 84.546875 L 486.351562 525.625 L 89.226562 525.625 Z M 89.226562 84.546875 " fill-opacity="1" fill-rule="nonzero"/></g></g><g clip-path="url(#e6baeb867d)"><g clip-path="url(#523354e197)"><path fill="#231f20" d="M 89.226562 84.546875 L 486.351562 84.546875 L 486.351562 525.625 L 89.226562 525.625 Z M 89.226562 84.546875 " fill-opacity="1" fill-rule="nonzero"/></g></g><g clip-path="url(#52bbd75dcb)"><g clip-path="url(#dd12d9b6d8)"><path fill="#231f20" d="M 89.226562 84.546875 L 486.351562 84.546875 L 486.351562 525.625 L 89.226562 525.625 Z M 89.226562 84.546875 " fill-opacity="1" fill-rule="nonzero"/></g></g><g clip-path="url(#f8be5a13a6)"><g clip-path="url(#99778688a5)"><path fill="#ed1c24" d="M 89.226562 84.546875 L 486.351562 84.546875 L 486.351562 525.625 L 89.226562 525.625 Z M 89.226562 84.546875 " fill-opacity="1" fill-rule="nonzero"/></g></g><g clip-path="url(#2291af8a3f)"><g clip-path="url(#67c673d3d5)"><path fill="#231f20" d="M 283.769531 21.832031 L 301.960938 21.832031 L 301.960938 83.976562 L 283.769531 83.976562 Z M 283.769531 21.832031 " fill-opacity="1" fill-rule="nonzero"/></g></g><g clip-path="url(#539bcf4d1d)"><g clip-path="url(#b5d636b85b)"><path fill="#231f20" d="M 500.515625 274.847656 L 562.660156 274.847656 L 562.660156 293.039062 L 500.515625 293.039062 Z M 500.515625 274.847656 " fill-opacity="1" fill-rule="nonzero"/></g></g><g clip-path="url(#b46bbcca62)"><g clip-path="url(#01f3d7b33d)"><path fill="#231f20" d="M 614.402344 145.484375 L 738.695312 145.484375 L 738.695312 363.753906 L 614.402344 363.753906 Z M 614.402344 145.484375 " fill-opacity="1" fill-rule="nonzero"/></g></g><g clip-path="url(#054a387d3c)"><g clip-path="url(#63e95f79b9)"><path fill="#231f20" d="M 612.71875 381.566406 L 832.15625 381.566406 L 832.15625 450.042969 L 612.71875 450.042969 Z M 612.71875 381.566406 " fill-opacity="1" fill-rule="nonzero"/></g></g><g clip-path="url(#4647df5b79)"><g clip-path="url(#be59781bd4)"><path fill="#231f20" d="M 612.71875 381.566406 L 832.15625 381.566406 L 832.15625 450.042969 L 612.71875 450.042969 Z M 612.71875 381.566406 " fill-opacity="1" fill-rule="nonzero"/></g></g><g clip-path="url(#481ccbb829)"><g clip-path="url(#d85929f969)"><path fill="#231f20" d="M 612.71875 381.566406 L 832.15625 381.566406 L 832.15625 450.042969 L 612.71875 450.042969 Z M 612.71875 381.566406 " fill-opacity="1" fill-rule="nonzero"/></g></g><g clip-path="url(#ff5e40eef5)"><g clip-path="url(#66f9f6a782)"><path fill="#231f20" d="M 612.71875 381.566406 L 832.15625 381.566406 L 832.15625 450.042969 L 612.71875 450.042969 Z M 612.71875 381.566406 " fill-opacity="1" fill-rule="nonzero"/></g></g><g clip-path="url(#3716fc7b9f)"><g clip-path="url(#d2cf20888a)"><path fill="#231f20" d="M 612.71875 381.566406 L 832.15625 381.566406 L 832.15625 450.042969 L 612.71875 450.042969 Z M 612.71875 381.566406 " fill-opacity="1" fill-rule="nonzero"/></g></g><g clip-path="url(#f8c6f25088)"><g clip-path="url(#9ea919fc8d)"><path fill="#231f20" d="M 612.71875 381.566406 L 832.15625 381.566406 L 832.15625 450.042969 L 612.71875 450.042969 Z M 612.71875 381.566406 " fill-opacity="1" fill-rule="nonzero"/></g></g><g clip-path="url(#1298304248)"><g clip-path="url(#04afd7094d)"><path fill="#231f20" d="M 612.71875 381.566406 L 832.15625 381.566406 L 832.15625 450.042969 L 612.71875 450.042969 Z M 612.71875 381.566406 " fill-opacity="1" fill-rule="nonzero"/></g></g><g clip-path="url(#2a839ef57d)"><g clip-path="url(#dcb13e1d1c)"><path fill="#231f20" d="M 612.71875 381.566406 L 832.15625 381.566406 L 832.15625 450.042969 L 612.71875 450.042969 Z M 612.71875 381.566406 " fill-opacity="1" fill-rule="nonzero"/></g></g><g clip-path="url(#c55a72fc55)"><g clip-path="url(#d047cd4cb5)"><path fill="#231f20" d="M 612.71875 381.566406 L 832.15625 381.566406 L 832.15625 450.042969 L 612.71875 450.042969 Z M 612.71875 381.566406 " fill-opacity="1" fill-rule="nonzero"/></g></g><g clip-path="url(#38f21e118e)"><g clip-path="url(#8267bb93eb)"><path fill="#231f20" d="M 763.523438 142.492188 L 1280.390625 142.492188 L 1280.390625 371.367188 L 763.523438 371.367188 Z M 763.523438 142.492188 " fill-opacity="1" fill-rule="nonzero"/></g></g><g clip-path="url(#c8438c7f1d)"><g clip-path="url(#99615ab692)"><path fill="#231f20" d="M 763.523438 142.492188 L 1280.390625 142.492188 L 1280.390625 371.367188 L 763.523438 371.367188 Z M 763.523438 142.492188 " fill-opacity="1" fill-rule="nonzero"/></g></g><g clip-path="url(#8c7b2d1f25)"><g clip-path="url(#cbdca08dc5)"><path fill="#231f20" d="M 763.523438 142.492188 L 1280.390625 142.492188 L 1280.390625 371.367188 L 763.523438 371.367188 Z M 763.523438 142.492188 " fill-opacity="1" fill-rule="nonzero"/></g></g><g clip-path="url(#883eee08f2)"><g clip-path="url(#234ef9a425)"><path fill="#231f20" d="M 763.523438 142.492188 L 1280.390625 142.492188 L 1280.390625 371.367188 L 763.523438 371.367188 Z M 763.523438 142.492188 " fill-opacity="1" fill-rule="nonzero"/></g></g><g clip-path="url(#581e718f8e)"><g clip-path="url(#7561965fd3)"><path fill="#ed1c24" d="M 763.523438 142.492188 L 1280.390625 142.492188 L 1280.390625 371.367188 L 763.523438 371.367188 Z M 763.523438 142.492188 " fill-opacity="1" fill-rule="nonzero"/></g></g><g clip-path="url(#c90ecb7086)"><g clip-path="url(#73ba29457c)"><path fill="#231f20" d="M 831.890625 380.671875 L 1280.097656 380.671875 L 1280.097656 450.703125 L 831.890625 450.703125 Z M 831.890625 380.671875 " fill-opacity="1" fill-rule="nonzero"/></g></g><g clip-path="url(#285f67b75f)"><g clip-path="url(#210466bbd4)"><path fill="#231f20" d="M 831.890625 380.671875 L 1280.097656 380.671875 L 1280.097656 450.703125 L 831.890625 450.703125 Z M 831.890625 380.671875 " fill-opacity="1" fill-rule="nonzero"/></g></g><g clip-path="url(#d69b27d526)"><g clip-path="url(#93fdd14438)"><path fill="#231f20" d="M 831.890625 380.671875 L 1280.097656 380.671875 L 1280.097656 450.703125 L 831.890625 450.703125 Z M 831.890625 380.671875 " fill-opacity="1" fill-rule="nonzero"/></g></g><g clip-path="url(#191e8a80e3)"><g clip-path="url(#97d477d6a7)"><path fill="#231f20" d="M 831.890625 380.671875 L 1280.097656 380.671875 L 1280.097656 450.703125 L 831.890625 450.703125 Z M 831.890625 380.671875 " fill-opacity="1" fill-rule="nonzero"/></g></g><g clip-path="url(#b52007879e)"><g clip-path="url(#c12cec587d)"><path fill="#231f20" d="M 831.890625 380.671875 L 1280.097656 380.671875 L 1280.097656 450.703125 L 831.890625 450.703125 Z M 831.890625 380.671875 " fill-opacity="1" fill-rule="nonzero"/></g></g><g clip-path="url(#2ca1b10ff7)"><g clip-path="url(#dc6a3ef720)"><path fill="#231f20" d="M 831.890625 380.671875 L 1280.097656 380.671875 L 1280.097656 450.703125 L 831.890625 450.703125 Z M 831.890625 380.671875 " fill-opacity="1" fill-rule="nonzero"/></g></g><g clip-path="url(#bf98b8fb30)"><g clip-path="url(#3a4be83f7e)"><path fill="#231f20" d="M 831.890625 380.671875 L 1280.097656 380.671875 L 1280.097656 450.703125 L 831.890625 450.703125 Z M 831.890625 380.671875 " fill-opacity="1" fill-rule="nonzero"/></g></g><g clip-path="url(#7b533b354e)"><g clip-path="url(#e25c810ea8)"><path fill="#231f20" d="M 831.890625 380.671875 L 1280.097656 380.671875 L 1280.097656 450.703125 L 831.890625 450.703125 Z M 831.890625 380.671875 " fill-opacity="1" fill-rule="nonzero"/></g></g><g clip-path="url(#a29519dac0)"><g clip-path="url(#5af45c292a)"><path fill="#231f20" d="M 831.890625 380.671875 L 1280.097656 380.671875 L 1280.097656 450.703125 L 831.890625 450.703125 Z M 831.890625 380.671875 " fill-opacity="1" fill-rule="nonzero"/></g></g><g clip-path="url(#813df88e90)"><g clip-path="url(#1a9c6c2bbd)"><path fill="#231f20" d="M 831.890625 380.671875 L 1280.097656 380.671875 L 1280.097656 450.703125 L 831.890625 450.703125 Z M 831.890625 380.671875 " fill-opacity="1" fill-rule="nonzero"/></g></g><g clip-path="url(#62f60f52f2)"><g clip-path="url(#dc415372a9)"><path fill="#231f20" d="M 831.890625 380.671875 L 1280.097656 380.671875 L 1280.097656 450.703125 L 831.890625 450.703125 Z M 831.890625 380.671875 " fill-opacity="1" fill-rule="nonzero"/></g></g><g clip-path="url(#e845716d6a)"><g clip-path="url(#f40549f59c)"><path fill="#231f20" d="M 831.890625 380.671875 L 1280.097656 380.671875 L 1280.097656 450.703125 L 831.890625 450.703125 Z M 831.890625 380.671875 " fill-opacity="1" fill-rule="nonzero"/></g></g><g clip-path="url(#ffdc2047e9)"><g clip-path="url(#4638e1e4db)"><path fill="#231f20" d="M 831.890625 380.671875 L 1280.097656 380.671875 L 1280.097656 450.703125 L 831.890625 450.703125 Z M 831.890625 380.671875 " fill-opacity="1" fill-rule="nonzero"/></g></g><g clip-path="url(#3ce3015a6d)"><g clip-path="url(#516d1d7d43)"><path fill="#231f20" d="M 831.890625 380.671875 L 1280.097656 380.671875 L 1280.097656 450.703125 L 831.890625 450.703125 Z M 831.890625 380.671875 " fill-opacity="1" fill-rule="nonzero"/></g></g><g clip-path="url(#9d100b1799)"><g clip-path="url(#d056de89f7)"><path fill="#231f20" d="M 831.890625 380.671875 L 1280.097656 380.671875 L 1280.097656 450.703125 L 831.890625 450.703125 Z M 831.890625 380.671875 " fill-opacity="1" fill-rule="nonzero"/></g></g><g clip-path="url(#08db8320d5)"><g clip-path="url(#36deb5e94d)"><path fill="#231f20" d="M 831.890625 380.671875 L 1280.097656 380.671875 L 1280.097656 450.703125 L 831.890625 450.703125 Z M 831.890625 380.671875 " fill-opacity="1" fill-rule="nonzero"/></g></g><g clip-path="url(#de8177ea87)"><g clip-path="url(#43ec05acf8)"><path fill="#231f20" d="M 831.890625 380.671875 L 1280.097656 380.671875 L 1280.097656 450.703125 L 831.890625 450.703125 Z M 831.890625 380.671875 " fill-opacity="1" fill-rule="nonzero"/></g></g></svg>